<svg width="220" height="36" viewBox="0 0 220 36" fill="none" xmlns="http://www.w3.org/2000/svg">
<g clip-path="url(#clip0_102_29)">
<path d="M18.4615 5.53472L36.0626 0.349121L30.9269 18.0001L36.0626 35.6012L18.4615 30.4655L0.810547 35.6012L5.99614 18.0001L0.810547 0.349121L18.4615 5.53472Z" fill="url(#paint0_linear_102_29)"/>
</g>
<path d="M49.3828 31V3H60.5028C62.2095 3 63.7295 3.34667 65.0628 4.04C66.4228 4.70667 67.4761 5.66667 68.2228 6.92C68.9961 8.14667 69.3828 9.62667 69.3828 11.36V11.88C69.3828 13.6133 68.9828 15.1067 68.1828 16.36C67.4095 17.6133 66.3561 18.5733 65.0228 19.24C63.6895 19.9067 62.1828 20.24 60.5028 20.24H53.7028V31H49.3828ZM53.7028 16.32H60.0628C61.5828 16.32 62.7961 15.92 63.7028 15.12C64.6095 14.32 65.0628 13.2267 65.0628 11.84V11.44C65.0628 10.0267 64.6095 8.92 63.7028 8.12C62.7961 7.32 61.5828 6.92 60.0628 6.92H53.7028V16.32Z" fill="white"/>
<path d="M82.2975 31.56C80.3242 31.56 78.5642 31.16 77.0175 30.36C75.4975 29.5333 74.2975 28.36 73.4175 26.84C72.5375 25.32 72.0975 23.52 72.0975 21.44V20.84C72.0975 18.76 72.5375 16.9733 73.4175 15.48C74.2975 13.96 75.4975 12.7867 77.0175 11.96C78.5642 11.1333 80.3242 10.72 82.2975 10.72C84.2708 10.72 86.0308 11.1333 87.5775 11.96C89.1242 12.7867 90.3375 13.96 91.2175 15.48C92.0975 16.9733 92.5375 18.76 92.5375 20.84V21.44C92.5375 23.52 92.0975 25.32 91.2175 26.84C90.3375 28.36 89.1242 29.5333 87.5775 30.36C86.0308 31.16 84.2708 31.56 82.2975 31.56ZM82.2975 27.88C84.1108 27.88 85.5775 27.3067 86.6975 26.16C87.8442 24.9867 88.4175 23.3733 88.4175 21.32V20.96C88.4175 18.9067 87.8575 17.3067 86.7375 16.16C85.6175 14.9867 84.1375 14.4 82.2975 14.4C80.5108 14.4 79.0442 14.9867 77.8975 16.16C76.7775 17.3067 76.2175 18.9067 76.2175 20.96V21.32C76.2175 23.3733 76.7775 24.9867 77.8975 26.16C79.0442 27.3067 80.5108 27.88 82.2975 27.88Z" fill="white"/>
<path d="M105.747 31.56C103.24 31.56 101.16 31 99.5069 29.88C97.8535 28.76 96.8402 27.0667 96.4669 24.8L100.307 23.88C100.52 24.9733 100.88 25.84 101.387 26.48C101.894 27.12 102.52 27.5733 103.267 27.84C104.04 28.1067 104.867 28.24 105.747 28.24C107.054 28.24 108.054 27.9867 108.747 27.48C109.467 26.9733 109.827 26.32 109.827 25.52C109.827 24.72 109.494 24.1333 108.827 23.76C108.16 23.3867 107.174 23.08 105.867 22.84L104.507 22.6C103.174 22.36 101.96 22.0133 100.867 21.56C99.7735 21.1067 98.9069 20.48 98.2669 19.68C97.6269 18.88 97.3069 17.8533 97.3069 16.6C97.3069 14.7333 98.0002 13.2933 99.3869 12.28C100.774 11.24 102.614 10.72 104.907 10.72C107.12 10.72 108.934 11.2267 110.347 12.24C111.787 13.2267 112.72 14.5733 113.147 16.28L109.307 17.36C109.067 16.16 108.56 15.32 107.787 14.84C107.014 14.3333 106.054 14.08 104.907 14.08C103.787 14.08 102.907 14.2933 102.267 14.72C101.627 15.12 101.307 15.6933 101.307 16.44C101.307 17.24 101.614 17.8267 102.227 18.2C102.867 18.5733 103.72 18.8533 104.787 19.04L106.187 19.28C107.6 19.52 108.894 19.8533 110.067 20.28C111.24 20.7067 112.16 21.32 112.827 22.12C113.52 22.92 113.867 23.9867 113.867 25.32C113.867 27.2933 113.134 28.8267 111.667 29.92C110.2 31.0133 108.227 31.56 105.747 31.56Z" fill="white"/>
<path d="M118.683 31V11.28H122.803V31H118.683ZM120.763 8.6C119.963 8.6 119.283 8.34667 118.723 7.84C118.189 7.30667 117.923 6.62667 117.923 5.8C117.923 4.97333 118.189 4.30667 118.723 3.8C119.283 3.26667 119.963 3 120.763 3C121.589 3 122.269 3.26667 122.803 3.8C123.336 4.30667 123.603 4.97333 123.603 5.8C123.603 6.62667 123.336 7.30667 122.803 7.84C122.269 8.34667 121.589 8.6 120.763 8.6Z" fill="white"/>
<path d="M136.317 31C135.117 31 134.157 30.64 133.437 29.92C132.744 29.2 132.397 28.24 132.397 27.04V14.76H126.957V11.28H132.397V4.76H136.517V11.28H142.397V14.76H136.517V26.32C136.517 27.12 136.89 27.52 137.637 27.52H141.757V31H136.317Z" fill="white"/>
<path d="M147.237 31V11.28H151.357V31H147.237ZM149.317 8.6C148.517 8.6 147.837 8.34667 147.277 7.84C146.744 7.30667 146.477 6.62667 146.477 5.8C146.477 4.97333 146.744 4.30667 147.277 3.8C147.837 3.26667 148.517 3 149.317 3C150.144 3 150.824 3.26667 151.357 3.8C151.891 4.30667 152.157 4.97333 152.157 5.8C152.157 6.62667 151.891 7.30667 151.357 7.84C150.824 8.34667 150.144 8.6 149.317 8.6Z" fill="white"/>
<path d="M162.032 31L155.392 11.28H159.752L164.992 27.96H165.632L170.872 11.28H175.232L168.592 31H162.032Z" fill="white"/>
<path d="M186.789 31.36C185.296 31.36 183.963 31.0267 182.789 30.36C181.616 29.6933 180.696 28.7467 180.029 27.52C179.363 26.2933 179.029 24.8267 179.029 23.12V11.28H183.149V22.84C183.149 24.5467 183.576 25.8133 184.429 26.64C185.283 27.44 186.469 27.84 187.989 27.84C189.669 27.84 191.016 27.28 192.029 26.16C193.069 25.0133 193.589 23.3733 193.589 21.24V11.28H197.709V31H193.669V28.04H193.029C192.656 28.84 191.989 29.6 191.029 30.32C190.069 31.0133 188.656 31.36 186.789 31.36Z" fill="white"/>
<path d="M211.88 31.56C209.373 31.56 207.293 31 205.64 29.88C203.986 28.76 202.973 27.0667 202.6 24.8L206.44 23.88C206.653 24.9733 207.013 25.84 207.52 26.48C208.026 27.12 208.653 27.5733 209.4 27.84C210.173 28.1067 211 28.24 211.88 28.24C213.186 28.24 214.186 27.9867 214.88 27.48C215.6 26.9733 215.96 26.32 215.96 25.52C215.96 24.72 215.626 24.1333 214.96 23.76C214.293 23.3867 213.306 23.08 212 22.84L210.64 22.6C209.306 22.36 208.093 22.0133 207 21.56C205.906 21.1067 205.04 20.48 204.4 19.68C203.76 18.88 203.44 17.8533 203.44 16.6C203.44 14.7333 204.133 13.2933 205.52 12.28C206.906 11.24 208.746 10.72 211.04 10.72C213.253 10.72 215.066 11.2267 216.48 12.24C217.92 13.2267 218.853 14.5733 219.28 16.28L215.44 17.36C215.2 16.16 214.693 15.32 213.92 14.84C213.146 14.3333 212.186 14.08 211.04 14.08C209.92 14.08 209.04 14.2933 208.4 14.72C207.76 15.12 207.44 15.6933 207.44 16.44C207.44 17.24 207.746 17.8267 208.36 18.2C209 18.5733 209.853 18.8533 210.92 19.04L212.32 19.28C213.733 19.52 215.026 19.8533 216.2 20.28C217.373 20.7067 218.293 21.32 218.96 22.12C219.653 22.92 220 23.9867 220 25.32C220 27.2933 219.266 28.8267 217.8 29.92C216.333 31.0133 214.36 31.56 211.88 31.56Z" fill="white"/>
<defs>
<linearGradient id="paint0_linear_102_29" x1="18.4366" y1="0.349121" x2="18.4366" y2="35.6012" gradientUnits="userSpaceOnUse">
<stop stop-color="#7B61FF"/>
<stop offset="1" stop-color="#00FFAB"/>
</linearGradient>
<clipPath id="clip0_102_29">
<rect width="36" height="36" fill="white" transform="translate(0.462891)"/>
</clipPath>
</defs>
</svg>
