<svg width="140" height="66" viewBox="0 0 140 66" fill="none" xmlns="http://www.w3.org/2000/svg">
<path d="M137.998 10.0665L113.15 11.7584C111.871 11.8454 111.167 13.2834 111.881 14.3474L125.77 35.0204C126.485 36.0844 128.083 35.9755 128.646 34.8245L139.604 12.4595C140.17 11.3095 139.277 9.97946 137.998 10.0665Z" fill="#0033A4"/>
<path d="M110.219 65.3134C120.431 65.3134 126.523 53.9314 120.858 45.4344L114.293 35.5875L79.141 65.3134H110.219Z" fill="#0033A4"/>
<path d="M41.696 21.0295C43.667 21.0635 45.495 22.0635 46.588 23.7045L69.333 57.8915L107.592 25.5375L94.363 5.69446C89.887 -1.01954 80.388 -1.95954 74.683 3.74546L70.554 7.87446C65.561 12.8675 57.465 12.8675 52.471 7.87446L48.342 3.74546C42.637 -1.95954 33.138 -1.01954 28.662 5.69446L2.16896 45.4345C-2.43704 52.3435 0.728967 61.1595 7.56397 64.2135L36.716 23.5325C37.864 21.9305 39.752 21.0005 41.696 21.0295Z" fill="#0033A4"/>
<path d="M21.538 65.3134H59.858L41.409 37.5845L21.538 65.3134Z" fill="#0033A4"/>
</svg>
